<?xml version="1.0" encoding="UTF-8"?>
<svg id="Layer_1" xmlns="http://www.w3.org/2000/svg" version="1.1" viewBox="0 0 68.61 46.48">
  <!-- Generator: Adobe Illustrator 29.6.1, SVG Export Plug-In . SVG Version: 2.1.1 Build 9)  -->
  <defs>
    <style>
      .st0 {
        fill: #c7b12d;
        stroke-width: .25px;
      }

      .st0, .st1 {
        stroke: #b99925;
        stroke-miterlimit: 10;
      }

      .st1 {
        fill: #270c40;
        stroke-width: .15px;
      }
    </style>
  </defs>
  <g>
    <path class="st1" d="M20.04,9.71v-.99h6.11v.99c-.51.02-.96.21-1.34.54-.38.34-.69.83-.91,1.47-.22.64-.33,1.42-.33,2.32l.22,20.72h-.71L11.41,13.2l.17,14.51c.02.9.06,1.67.14,2.29.08.62.21,1.16.41,1.62.2.46.48.82.85,1.08.37.27.85.44,1.43.52v.99h-6.07v-.99c.79-.1,1.38-.43,1.77-1.01.38-.58.62-1.3.71-2.16.09-.86.12-1.94.09-3.24l-.16-14.8c-.43-.75-.86-1.32-1.27-1.71-.41-.39-.84-.59-1.28-.59h-.14v-.99h4.72l10.29,18.99-.16-12.7c0-.98-.06-1.8-.19-2.48-.13-.68-.34-1.23-.63-1.65-.21-.34-.52-.62-.92-.84-.4-.22-.78-.33-1.14-.32ZM22.25,30.4L11.96,11.41c-.21-.43-.47-.82-.76-1.17-.29-.35-.71-.52-1.24-.52h-.51c.43.24.76.53.99.88.24.34.57.92.99,1.73l11.73,21.61c0-.35-.02-.69-.03-1.02-.01-.33-.04-.58-.07-.74s-.11-.36-.22-.61c-.11-.24-.3-.63-.59-1.16ZM9.75,33.21h2.41c-.34-.41-.57-.79-.71-1.14-.14-.35-.26-.84-.36-1.46-.1.57-.25,1.06-.46,1.47-.21.42-.5.79-.88,1.13ZM24.04,9.71h-2.5c.38.21.69.49.93.85.24.36.44.86.61,1.48.18-1.07.5-1.85.96-2.33Z"/>
    <path class="st1" d="M38.2,9.71v-.99h5.09v.99c-.33.07-.68.3-1.02.7-.35.39-.7.96-1.07,1.71-.37.75-.74,1.65-1.13,2.71l-3.37,9.14v6.5c0,1.16.18,1.88.54,2.17s.99.48,1.9.58v.99h-7.7v-.99h.21c.66,0,1.16-.14,1.48-.41s.53-.62.61-1.04c.08-.42.12-.98.12-1.66v-5.26l-4.87-12.92c-.28-.77-.55-1.34-.8-1.72-.25-.37-.69-.54-1.3-.51v-.99h7.53v.99c-.69.02-1.21.11-1.59.27-.37.16-.56.56-.56,1.21,0,.51.27,1.47.81,2.89l3.3,8.69,2.21-5.87c.4-1.07.7-1.99.9-2.76.19-.76.29-1.48.29-2.14,0-.6-.14-1.14-.41-1.6-.27-.46-.62-.7-1.04-.7h-.11ZM34.94,24.36l-4.75-12.65c-.3-.83-.55-1.37-.74-1.63-.19-.25-.46-.38-.8-.38h-.34c.2.13.37.34.5.63.14.29.32.75.55,1.37l4.87,12.92v6.25c0,.69-.07,1.17-.22,1.46s-.42.58-.83.87h.49c.48,0,.81-.19,1-.56.19-.37.28-.94.28-1.7v-6.59ZM40.14,11.9v.42c.19-.65.38-1.14.57-1.46s.44-.7.75-1.14h-2c.46.46.69,1.19.69,2.19Z"/>
    <path class="st1" d="M54.92,8.72h6.32v.99c-.78.08-1.52.56-2.24,1.43s-1.58,2.24-2.58,4.12l-2.48,4.71,4.08,8.42c.69,1.43,1.16,2.39,1.42,2.88s.61.93,1.03,1.33.92.6,1.48.61v.99h-8.24v-.99h.27c.56,0,.97-.14,1.24-.43s.41-.63.41-1.01c0-.46-.12-.98-.35-1.56-.23-.58-.55-1.3-.97-2.14l-2.2-4.59-2.19,4.1c-.42.78-.72,1.44-.91,1.99s-.28,1.07-.28,1.57c0,.67.16,1.17.47,1.5.31.33.76.52,1.35.58v.99h-6.39v-.99h.14c.35,0,.77-.2,1.27-.59.5-.39,1.06-1.02,1.69-1.89.63-.87,1.27-1.92,1.91-3.16l2.58-4.91-4.19-8.69c-.6-1.26-1.06-2.17-1.37-2.73-.31-.55-.62-.95-.94-1.17-.31-.23-.71-.35-1.2-.36v-.99h7.84v.99h-.82c-.31,0-.58.11-.79.32-.22.21-.33.5-.33.88,0,.3.05.59.15.88.1.28.27.69.53,1.22l2.92,6.14,2.11-4.03c.73-1.38,1.1-2.52,1.1-3.4,0-.53-.16-.99-.47-1.37-.31-.39-.77-.6-1.36-.63v-.99ZM55.32,27.25l-7.32-15.25c-.35-.71-.61-1.2-.79-1.47-.18-.27-.4-.48-.66-.62-.26-.14-.61-.22-1.04-.23.28.17.58.5.89.98s.69,1.21,1.15,2.16l7.68,16.17c.53,1.13.79,2.05.79,2.75,0,.49-.2.99-.61,1.48.46.01.81-.13,1.05-.42s.36-.68.36-1.17-.12-1.11-.35-1.78c-.23-.67-.61-1.53-1.13-2.59ZM45.7,33.21h2.79c-.43-.4-.65-.95-.65-1.66,0-.37.06-.78.18-1.23-.3.49-.51.85-.65,1.07-.14.22-.35.49-.65.82-.29.33-.63.67-1.02,1ZM58.87,9.71h-2.46c.47.45.71,1.08.71,1.9,0,.22,0,.4-.02.54.44-1.05,1.03-1.86,1.77-2.44Z"/>
  </g>
  <g id="star">
    <path id="Star" class="st0" d="M9.75,27.62l-1.12,1.14c-.58.59-.88,1.4-.81,2.22l.14,1.63-1.15-1.16c-.58-.59-1.39-.89-2.21-.83l-1.6.12,1.12-1.14c.58-.59.88-1.4.81-2.22l-.14-1.63,1.15,1.16c.58.59,1.39.89,2.21.83l1.6-.12Z"/>
    <path id="star1" data-name="star" class="st0" d="M61.96,17.14l-1.08.12c-.6.07-1.14.39-1.48.89l-.72,1.06-.04-1.28c-.02-.6-.3-1.17-.77-1.55l-.84-.68,1.08-.12c.6-.07,1.14-.39,1.48-.89l.72-1.06.04,1.28c.02.6.3,1.17.77,1.55l.84.68Z"/>
  </g>
  <g id="star2" data-name="star">
    <path id="star3" data-name="star" class="st0" d="M8.63,23.72l1.76-.2-1.21,1.29c-.1.11-.15.26-.13.4l.21,1.76-1.3-1.2c-.11-.11-.27-.16-.43-.14l-1.76.2,1.21-1.29c.1-.11.15-.26.13-.4l-.21-1.76,1.3,1.2c.11.11.27.16.43.14Z"/>
    <path id="star4" data-name="star" class="st0" d="M66.46,12.23l-1.66.67c-.63.26-1.12.78-1.34,1.43l-.52,1.54-.69-1.47c-.29-.62-.84-1.08-1.49-1.27l-1.73-.48,1.66-.67c.63-.26,1.12-.78,1.34-1.43l.52-1.54.69,1.47c.29.62.84,1.08,1.49,1.27l1.73.48Z"/>
  </g>
</svg>